PathFileType	4	(X/Y/Z)	c:/Users/goper/Files/vsCode/490R/osim_files/A05/A05_Static01.trc
DataRate	CameraRate	NumFrames	NumMarkers	Units                	OrigDataRate	OrigDataStartFrame	OrigNumFrames
250.00	250.00	7	36	mm	250.0	1752	3502
                Frame#	Time	LPSIS			LASIS			LTH1			LTH2			LTH3			LTH4			LLFE			LMFE			LSH1			LSH2			LSH3			LSH4			LLMAL			LMMAL			LCAL			LMTP5			LTOE			LMTP1			RPSIS			RASIS			RTH1			RTH2			RTH3			RTH4			RLFE			RMFE			RSH1			RSH2			RSH3			RSH4			RLMAL			RMMAL			RCAL			RMTP1			RTOE			RMTP5		
		X1	Y1	Z1	X2	Y2	Z2	X3	Y3	Z3	X4	Y4	Z4	X5	Y5	Z5	X6	Y6	Z6	X7	Y7	Z7	X8	Y8	Z8	X9	Y9	Z9	X10	Y10	Z10	X11	Y11	Z11	X12	Y12	Z12	X13	Y13	Z13	X14	Y14	Z14	X15	Y15	Z15	X16	Y16	Z16	X17	Y17	Z17	X18	Y18	Z18	X19	Y19	Z19	X20	Y20	Z20	X21	Y21	Z21	X22	Y22	Z22	X23	Y23	Z23	X24	Y24	Z24	X25	Y25	Z25	X26	Y26	Z26	X27	Y27	Z27	X28	Y28	Z28	X29	Y29	Z29	X30	Y30	Z30	X31	Y31	Z31	X32	Y32	Z32	X33	Y33	Z33	X34	Y34	Z34	X35	Y35	Z35	X36	Y36	Z36

1752	7.00400	158.85526	992.69604	399.18860	342.05844	966.56708	265.33945	0.00000	0.00000	0.00000	229.32396	649.07074	237.97784	273.96884	701.42822	217.74135	278.87033	658.22046	220.48183	294.57465	480.41714	241.71855	301.35370	475.61011	340.81924	255.23982	386.98398	233.24748	249.43954	341.12787	231.25746	313.69766	376.03903	241.87456	301.74353	332.36411	236.83325	255.34203	116.76668	232.96313	260.78561	119.14129	322.75659	0.00000	0.00000	0.00000	380.46014	49.64887	200.18237	434.78201	71.14389	259.03653	395.62656	63.79079	308.85376	171.29131	997.12994	481.05374	359.21741	976.99780	580.12921	322.50693	628.93610	620.03662	333.48123	588.44397	611.34155	381.20465	642.44879	604.09546	383.93243	595.66614	594.97058	308.61612	516.85577	598.93781	338.85373	501.73093	462.58289	220.84668	269.88437	579.38043	212.43028	225.22661	568.78687	280.24966	253.37213	579.63287	260.92459	208.41609	572.29773	198.93764	111.57774	544.03143	251.25500	134.85844	461.52417	152.89349	70.27405	452.47409	363.48611	58.83054	490.97214	384.30545	65.79580	550.03461	309.57724	44.87343	598.93555
1753	7.00800	158.85204	992.64587	399.15057	342.04407	966.55389	265.31888	0.00000	0.00000	0.00000	229.28954	649.04022	237.98703	274.01004	701.42218	217.68002	278.85837	658.21619	220.46005	294.57089	480.43073	241.73051	301.32516	475.60690	340.78842	255.22314	386.99005	233.22633	249.45360	341.13480	231.25870	313.70502	376.02182	241.83852	301.74271	332.37399	236.83168	255.32555	116.77430	232.97801	260.78366	119.14034	322.75089	0.00000	0.00000	0.00000	380.43579	49.64273	200.19707	434.75607	71.13358	259.04568	395.64163	63.79956	308.85709	170.20956	997.37341	481.33813	359.22549	977.02588	580.13110	322.50574	628.95587	620.02264	333.42197	588.44415	611.31317	381.19818	642.48206	604.10168	383.91898	595.67230	594.93579	308.59500	516.87457	598.89496	338.86423	501.76907	462.58282	220.54840	269.12546	579.47504	212.33464	225.16331	568.72327	280.08957	253.13127	579.91351	260.91797	208.44427	572.29639	198.93906	111.57282	544.00671	251.27197	134.85640	461.52499	152.90411	70.25861	452.49280	363.70560	59.11793	491.01300	384.30255	65.82130	550.05310	309.57144	44.86983	598.92938
1754	7.01200	158.84903	992.59583	399.11243	341.95911	966.54553	265.33908	0.00000	0.00000	0.00000	229.30472	649.03955	237.97694	274.01041	701.46112	217.67194	278.85342	658.20648	220.44304	294.60498	480.45895	241.70711	301.30222	475.62604	340.80573	255.24527	386.97598	233.19043	249.39713	340.99509	231.48799	313.67923	376.02203	241.84119	301.74451	332.38400	236.82144	255.35431	116.79897	232.96986	260.76660	119.15102	322.77127	174.28706	66.13840	289.88412	380.44788	49.66611	200.20241	434.74109	71.14954	259.05780	395.61932	63.80389	308.86545	171.25650	997.13696	481.02341	359.16867	977.03070	580.11438	322.47061	628.96899	620.01593	333.38315	588.43329	611.28259	381.14676	642.47003	604.08148	383.89508	595.68921	594.93414	308.54932	516.87994	598.89862	338.89813	501.80231	462.56433	220.13802	269.30774	578.86920	212.36671	225.21059	568.73627	280.05292	253.14966	579.91699	260.88474	208.44440	572.30298	198.93159	111.61315	544.03381	251.24854	134.85367	461.52841	152.87584	70.24776	452.49408	363.67645	59.08687	491.02438	384.30777	65.82735	550.04449	309.57758	44.88173	598.93457
1755	7.01600	158.84621	992.54620	399.07410	341.97995	966.56360	265.28815	0.00000	0.00000	0.00000	229.30429	649.06470	237.94341	273.94812	701.43439	217.69313	278.84579	658.22729	220.44223	294.58951	480.44388	241.68907	301.27530	475.60806	340.77200	255.26756	387.02512	233.19885	249.48079	341.16959	231.22612	313.71848	376.05090	241.82039	301.75269	332.38278	236.81546	255.33643	116.80819	232.95392	260.72217	119.13477	322.77588	174.24341	66.12992	289.91104	380.45288	49.67681	200.19231	434.73438	71.12360	259.06143	395.59570	63.79350	308.86420	171.19649	997.18274	480.97287	359.11710	977.01245	580.07623	322.33279	628.90259	619.95142	333.33585	588.43414	611.28156	381.12039	642.47314	604.08643	383.86084	595.66284	594.95184	308.50497	516.86469	598.88483	338.90640	501.80896	462.55145	220.68170	269.34497	579.60150	212.22475	225.07915	568.65240	280.19107	253.38110	579.62659	260.85245	208.43330	572.29083	198.90245	111.57786	544.03687	251.24522	134.86292	461.52887	152.84808	70.23444	452.50500	363.45865	58.82417	490.97620	384.26837	65.80127	550.05304	309.44159	44.89813	598.94507
1756	7.02000	158.84358	992.49677	399.03564	341.96313	966.56519	265.26309	0.00000	0.00000	0.00000	229.27899	649.04834	237.95570	273.99707	701.44714	217.66132	278.82953	658.22638	220.41888	294.59534	480.46472	241.68901	301.29349	475.63730	340.78415	255.23303	386.98950	233.18176	249.38493	340.97125	231.51340	313.71133	376.01797	241.82162	301.72925	332.38815	236.82329	255.34619	116.81557	232.95969	260.70853	119.09399	322.79132	0.00000	0.00000	0.00000	380.42334	49.65546	200.20781	434.67078	71.06802	259.09796	395.58664	63.75350	308.89084	170.13811	997.38794	481.30206	359.12332	977.01691	580.10065	322.32193	628.88708	619.94885	333.32788	588.42102	611.30029	381.10522	642.43945	604.08331	383.86508	595.66376	594.92883	308.48206	516.83563	598.88000	338.88614	501.78995	462.56021	220.14421	269.30728	578.94147	212.26241	225.04686	568.71075	280.16730	253.36978	579.65283	260.84882	208.42342	572.30005	199.04385	111.68311	544.10223	251.27483	134.89297	461.53906	152.85619	70.24965	452.52481	363.62259	59.04422	491.05292	384.27554	65.79304	550.06775	309.61298	44.91770	598.91516
1757	7.02400	158.84113	992.44781	398.99701	341.93979	966.55200	265.25412	0.00000	0.00000	0.00000	229.29573	649.03046	237.92807	273.96759	701.44019	217.65985	278.84924	658.21808	220.41853	294.57999	480.44922	241.68391	301.36395	475.65530	340.81128	255.24103	387.01141	233.19400	248.89575	340.43137	231.82729	313.70950	376.00204	241.79964	301.74023	332.37943	236.80110	255.34055	116.79008	232.96875	260.71924	119.09443	322.78375	0.00000	0.00000	0.00000	380.44458	49.66574	200.19910	434.69565	71.06380	259.08905	395.57825	63.75058	308.89957	171.18906	997.18036	480.91400	359.09723	976.98718	580.06750	322.32278	628.87469	619.95447	333.34424	588.38904	611.27289	381.08972	642.41858	604.06238	383.84183	595.64209	594.94977	308.49139	516.82397	598.90131	338.90091	501.80127	462.54233	220.19199	269.27173	578.95715	212.26964	225.00818	568.70886	280.17102	253.34439	579.63293	260.84842	208.40295	572.30402	199.08401	111.67297	544.12970	251.28575	134.89853	461.52499	152.85651	70.20612	452.54623	363.64551	59.05383	491.05978	384.29666	65.77705	550.09485	309.42783	44.82521	598.97375
1758	7.02800	158.83884	992.39905	398.95831	341.92026	966.54358	265.24051	0.00000	0.00000	0.00000	229.30447	649.04120	237.89751	273.93152	701.38989	217.67561	278.83127	658.21667	220.39105	294.60455	480.45694	241.66014	301.31906	475.63043	340.77063	255.20717	386.98062	233.17671	248.90620	340.40814	231.82549	313.71738	375.98566	241.82446	301.76025	332.38263	236.80533	255.33603	116.80537	232.98405	260.72989	119.09258	322.79236	0.00000	0.00000	0.00000	380.44534	49.66183	200.20580	434.71347	71.06625	259.10040	395.58530	63.74409	308.90466	171.19133	997.16486	480.92020	359.09973	976.99182	580.03333	322.35803	628.89014	619.93658	333.33972	588.38043	611.28845	381.09537	642.41791	604.07050	383.86316	595.64935	594.91644	308.50269	516.82660	598.88733	338.86810	501.76672	462.54578	220.19530	269.26224	578.96649	212.25533	224.98683	568.69189	280.17801	253.35106	579.61932	260.88071	208.40611	572.31696	199.07594	111.64819	544.14026	251.26175	134.88101	461.51010	152.85455	70.22859	452.52841	363.44589	58.79135	491.02271	384.27429	65.75895	550.08893	309.42926	44.82439	598.96790
